<?xml version="1.0" encoding="UTF-8"?>
<svg id="_レイヤー_2" data-name="レイヤー 2" xmlns="http://www.w3.org/2000/svg" viewBox="0 0 611.245 209.915">
  <defs>
    <style>
      .cls-1 {
        fill: #007b74;
      }
    </style>
  </defs>
  <g id="_レイヤー_1-2" data-name="レイヤー 1">
    <path class="cls-1" d="M514.534,130.135c.851,11.796-6.318,6.683-13.195,6.629-9.395-.074-28.729,6.511-30.433,17.35-3.105,19.751,16.31,30.838,33.547,31.331,1.957.056,5.796-.025,5.796-.025l96.635.078c1.923.002,3.555,1.413,3.832,3.317l.488,3.345c.339,2.325-1.451,4.425-3.801,4.443-19.354.147-38.751-.401-58.104-.093-24.45.389-52.643,6.879-74.781-7.137-9.636-6.101-14.895-15.135-16.573-25.672-.496-3.112-4.248-4.411-6.514-2.222-31.994,30.926-71.817,51.509-118.078,48.058-50.045-3.733-78.151-49.932-71.37-97.345,6.313-44.144,36.779-77.151,80.024-82.406,3.775-.459,4.719-5.508,1.354-7.277-47.576-25.021-104.461,5.455-142.992,36.069-55.431,44.041-96.001,114.202-169.498,131.502-4.911,1.156-26.967,5.487-30.033,3.975-1.536-.757-.804-8.813.96-10.048,1.191-.834,17.743-3.775,21.259-4.741,78.993-21.687,113.91-89.513,174.888-136.112,49.706-37.985,118.074-65.342,171.911-18.118,5.211,4.571,8.644,8.755,9.808,15.362,1.973,11.202-4.136,8.578-7.544,7.374-49.91-17.63-79.673,74.677-26.817,93.817,34.837,12.616,55.088-14.129,84.291-24.786,18.074-6.596,34.373-8.09,53.283-3.787,14.269,3.246,31.655,10.378,31.659,17.119ZM313.739,61.87c2.119-3.605-2.186-7.569-5.583-5.129-30.639,22.012-42.852,71.031-26.174,104.166,26.018,51.691,95.817,39.653,135.171,11.458,14.05-10.066,26.295-24.652,40.766-33.234,4.925-2.921,10.134-5.247,15.41-7.421,3.644-1.502,2.964-6.883-.942-7.408-7.569-1.016-15.236-.884-22.929.368-36.993,6.017-55.076,39.921-98.822,31.584-45.919-8.751-57.791-58.837-36.897-94.384Z"/>
  </g>
</svg>