<svg width="41" height="41" viewBox="0 0 41 41" fill="none" xmlns="http://www.w3.org/2000/svg">
<path d="M8.63059 17.6423C7.42459 17.6088 5.73615 17.6758 4.51001 17.6758V23.9471H6.26546V19.2034C6.26546 19.2034 7.82661 19.1498 8.38943 19.2168C8.91874 19.2772 9.11308 19.6055 9.13317 20.2889C9.14654 21.0661 9.13317 21.4748 9.13317 23.9471H10.8886C10.8886 23.9471 10.9087 21.1197 10.8886 20.1348C10.8618 18.386 10.2521 17.6825 8.63059 17.6423Z" fill="black"/>
<path d="M16.7512 17.6223C15.0159 17.6223 13.6022 19.0427 13.6022 20.7914C13.6022 22.5403 15.0159 23.9607 16.7512 23.9607C18.4866 23.9607 19.9003 22.5403 19.9003 20.7914C19.9003 19.0427 18.4866 17.6223 16.7512 17.6223ZM16.7512 22.4465C15.84 22.4465 15.103 21.7027 15.103 20.7848C15.103 19.8668 15.84 19.1232 16.7512 19.1232C17.6625 19.1232 18.3995 19.8668 18.3995 20.7848C18.3995 21.7094 17.6625 22.4465 16.7512 22.4465Z" fill="black"/>
<path d="M36.49 20.7914C36.49 19.0427 35.0762 17.6223 33.3409 17.6223C31.6056 17.6223 30.1918 19.0427 30.1918 20.7914C30.1918 21.8166 30.6609 22.6943 31.3912 23.2773C31.9004 23.6792 32.6106 23.9607 33.562 23.9607C34.0244 23.9607 35.2237 23.8334 36.088 22.8752L35.3778 21.9238C35.0762 22.1918 34.3191 22.567 33.7161 22.567C32.9523 22.567 32.49 22.4196 32.155 22.1047C31.9473 21.9171 31.7999 21.629 31.7329 21.2739H36.4431C36.4699 21.1131 36.49 20.959 36.49 20.7914ZM31.7463 20.2152C31.9205 19.4716 32.4431 18.9221 33.3342 18.9221C34.2655 18.9221 34.7546 19.5118 34.9154 20.2152H31.7463Z" fill="black"/>
<path d="M25.8634 17.0393H24.222V18.8015H22.5335V20.3425H24.222V22.1717H25.8634V20.3425H27.5519V18.8015H25.8634V17.0393Z" fill="black"/>
</svg>
